<svg xmlns="http://www.w3.org/2000/svg" xmlns:xlink="http://www.w3.org/1999/xlink" width="2000" zoomAndPan="magnify" viewBox="0 0 1500 1499.999933" height="2000" preserveAspectRatio="xMidYMid meet" version="1.0"><path fill="#f4b429" d="M 370.738281 0 L 418.5 0 C 441.570312 4.019531 461.160156 15.210938 479.820312 29.96875 C 505.320312 50.128906 523.769531 78.808594 527.21875 111.71875 C 528.378906 122.878906 528.460938 139.339844 527.460938 161.101562 C 527.191406 166.53125 524.609375 170.730469 523.921875 176.21875 C 523.621094 178.578125 523.078125 180.539062 522.300781 182.101562 C 514.289062 198.148438 505.351562 215.039062 492.929688 228.179688 C 487.769531 233.640625 484.648438 239.011719 478.378906 243.539062 C 470.101562 249.511719 464.789062 257.640625 455.25 261.390625 C 442.019531 266.578125 429.539062 272.070312 415.46875 273.03125 C 401.828125 273.96875 388.339844 273.28125 375 270.960938 C 361.660156 268.621094 349.078125 264.148438 337.261719 257.550781 C 316.558594 245.96875 299.128906 230.410156 284.96875 210.871094 C 282.351562 207.25 280.101562 202.339844 278.21875 196.140625 C 275.070312 185.761719 269.488281 177.300781 267.480469 167.339844 C 263.761719 148.738281 262.78125 130.988281 264.539062 114.089844 C 266.761719 92.671875 274.800781 64.378906 291.121094 48.300781 C 297.359375 42.121094 302.519531 35.460938 309.148438 30.269531 C 327.710938 15.789062 348.238281 5.699219 370.738281 0 Z M 370.738281 0 " fill-opacity="1" fill-rule="nonzero"/><path fill="#ffffff" d="M 1500 210.421875 L 1500 687.03125 C 1497.160156 694.167969 1494.378906 701.328125 1491.660156 708.511719 C 1480.558594 737.667969 1462.238281 760.160156 1436.699219 775.980469 C 1409.941406 792.539062 1367.609375 796.410156 1337.25 796.410156 C 1182.53125 796.511719 1027.019531 796.539062 870.71875 796.5 C 869.378906 796.5 868.53125 795.859375 868.171875 794.578125 C 867.890625 793.640625 868.460938 792.5 869.878906 791.160156 C 901.839844 760.878906 933.511719 730.289062 964.890625 699.390625 C 993.808594 670.921875 1025.128906 635.730469 1040.578125 600.328125 C 1091.578125 483.570312 995.398438 348.71875 868.558594 358.890625 C 845.199219 360.75 822.921875 366.371094 801.71875 375.75 C 775.949219 387.121094 754.261719 408.75 733.921875 428.21875 C 733.660156 428.46875 733.375 428.6875 733.066406 428.875 C 732.753906 429.058594 732.429688 429.210938 732.085938 429.324219 C 731.746094 429.4375 731.394531 429.515625 731.035156 429.550781 C 730.675781 429.585938 730.316406 429.585938 729.957031 429.542969 C 729.597656 429.5 729.25 429.417969 728.910156 429.296875 C 728.570312 429.175781 728.246094 429.019531 727.941406 428.828125 C 727.632812 428.636719 727.351562 428.410156 727.097656 428.15625 C 726.839844 427.902344 726.613281 427.625 726.421875 427.320312 C 695.25 378.480469 664.738281 331.5 618.300781 295.230469 C 616.941406 294.171875 616.140625 292.269531 615.898438 289.53125 C 609.238281 207.988281 619.859375 124.710938 710.308594 97.679688 C 722.050781 94.160156 741.03125 92.328125 767.25 92.191406 C 928.230469 91.210938 1119.480469 91.03125 1341 91.648438 C 1369.019531 91.710938 1398.390625 93.898438 1423.050781 105.328125 C 1452.011719 118.730469 1473.378906 140.238281 1487.160156 169.859375 C 1492.800781 181.949219 1496.128906 196.710938 1500 210.421875 Z M 1500 210.421875 " fill-opacity="1" fill-rule="nonzero"/><path fill="#ffffff" d="M 0 915.421875 L 0 515.21875 C 3.839844 498.621094 7.300781 485.859375 10.378906 476.941406 C 27.441406 427.601562 58.640625 393.269531 103.980469 373.949219 C 134.191406 361.078125 173.96875 357.660156 207.75 357.539062 C 266.390625 357.320312 364.640625 357.28125 502.5 357.421875 C 526.640625 357.441406 543.511719 359 553.109375 362.101562 C 573.171875 368.601562 589.679688 381.511719 602.640625 400.828125 C 639.800781 456.25 676.449219 511.339844 712.589844 566.101562 C 712.773438 566.378906 712.988281 566.636719 713.230469 566.871094 C 713.46875 567.105469 713.734375 567.308594 714.019531 567.484375 C 714.308594 567.660156 714.609375 567.800781 714.929688 567.910156 C 715.246094 568.019531 715.574219 568.089844 715.90625 568.128906 C 716.242188 568.164062 716.578125 568.167969 716.910156 568.128906 C 717.246094 568.09375 717.574219 568.023438 717.894531 567.914062 C 718.214844 567.804688 718.519531 567.664062 718.808594 567.492188 C 719.097656 567.316406 719.363281 567.113281 719.609375 566.878906 C 747.691406 540.039062 775.03125 513.050781 801.628906 485.910156 C 812.550781 474.78125 829.230469 460.859375 843.511719 454.199219 C 875.050781 439.519531 905.148438 443.429688 933.808594 465.929688 C 954.289062 482.03125 965.089844 502.609375 966.210938 527.671875 C 967.558594 557.699219 953.640625 583.109375 932.730469 604.261719 C 882.929688 654.699219 832.859375 704.871094 782.519531 754.769531 C 766.800781 770.339844 746.761719 786.628906 726.691406 793.441406 C 677.851562 809.941406 642.628906 776.851562 617.371094 738.511719 C 588.789062 695.128906 559.660156 651.570312 529.980469 607.828125 C 529.8125 607.582031 529.585938 607.40625 529.300781 607.308594 C 529.019531 607.207031 528.734375 607.199219 528.445312 607.285156 C 528.160156 607.371094 527.921875 607.53125 527.742188 607.769531 C 527.558594 608.011719 527.464844 608.28125 527.460938 608.578125 C 527.421875 714.621094 527.429688 820.890625 527.488281 927.390625 C 527.488281 930.191406 526.101562 933.511719 523.320312 937.351562 C 502.378906 966.308594 490.230469 998.339844 486.871094 1033.441406 C 486.832031 1033.746094 486.742188 1034.035156 486.601562 1034.3125 C 486.460938 1034.585938 486.277344 1034.828125 486.046875 1035.035156 C 485.820312 1035.242188 485.5625 1035.40625 485.277344 1035.519531 C 484.992188 1035.636719 484.691406 1035.699219 484.382812 1035.707031 C 484.074219 1035.71875 483.773438 1035.671875 483.484375 1035.574219 C 483.191406 1035.476562 482.925781 1035.328125 482.683594 1035.132812 C 482.445312 1034.941406 482.246094 1034.710938 482.089844 1034.445312 C 481.929688 1034.179688 481.824219 1033.894531 481.769531 1033.589844 C 462.121094 907.230469 351.808594 826.320312 225.421875 844.648438 C 225.0625 844.699219 224.703125 844.710938 224.34375 844.683594 C 223.980469 844.65625 223.628906 844.589844 223.28125 844.484375 C 222.933594 844.382812 222.605469 844.242188 222.285156 844.070312 C 221.96875 843.894531 221.675781 843.691406 221.402344 843.453125 C 221.128906 843.214844 220.886719 842.953125 220.667969 842.664062 C 220.453125 842.371094 220.269531 842.0625 220.117188 841.734375 C 219.96875 841.40625 219.855469 841.066406 219.777344 840.710938 C 219.699219 840.359375 219.660156 840 219.660156 839.640625 C 219.980469 752.921875 219.96875 666.558594 219.628906 580.558594 C 219.609375 577.660156 218.558594 572.699219 216.480469 565.679688 C 209.519531 542.25 192.960938 530.640625 167.28125 535.589844 C 136.859375 541.46875 131.488281 568.859375 131.460938 595.5 C 131.339844 689.738281 131.230469 783.988281 131.128906 878.25 C 131.128906 885.390625 130.53125 888.75 124.648438 893.488281 C 100.148438 913.351562 81.351562 937.261719 68.25 965.21875 C 67.945312 965.871094 67.558594 966.46875 67.082031 967.007812 C 66.605469 967.550781 66.0625 968.011719 65.453125 968.394531 C 64.84375 968.777344 64.191406 969.066406 63.5 969.261719 C 62.804688 969.457031 62.101562 969.550781 61.378906 969.539062 C 28.621094 969.269531 8.578125 946.019531 0 915.421875 Z M 0 915.421875 " fill-opacity="1" fill-rule="nonzero"/><path fill="#f4b429" d="M 336.03125 1173.238281 C 323.808594 1187.378906 308.089844 1193.238281 288.871094 1190.820312 C 287.851562 1190.699219 286.859375 1190.808594 285.898438 1191.148438 C 268.980469 1197.210938 244.890625 1192.558594 228 1189.230469 C 219.640625 1187.589844 211.71875 1184.570312 204.238281 1180.167969 C 190.980469 1172.339844 175.46875 1162.917969 165.78125 1150.828125 C 161.101562 1145.011719 157.5 1140.75 153.449219 1134.179688 C 147.988281 1125.339844 142.429688 1116.601562 136.769531 1107.960938 C 136.230469 1107.140625 135.960938 1106.238281 135.960938 1105.261719 C 135.78125 1092.359375 130.5 1081.261719 131.371094 1068.871094 C 131.871094 1061.46875 131.941406 1054.078125 131.578125 1046.699219 C 131.070312 1036.589844 133.5 1030.46875 136.828125 1021.589844 C 138.960938 1015.890625 138.511719 1008.898438 143.820312 1002.988281 C 144.421875 1002.328125 144.78125 1001.550781 144.898438 1000.648438 L 145.769531 993.71875 C 145.890625 992.71875 146.289062 991.851562 146.96875 991.109375 C 156.660156 980.699219 166.199219 970.558594 175.019531 959.339844 C 183 949.171875 194.878906 945.839844 204.03125 937.441406 C 204.691406 936.839844 205.460938 936.511719 206.339844 936.449219 C 212.160156 936.011719 217.320312 934 221.820312 930.421875 C 222.601562 929.800781 223.46875 929.429688 224.429688 929.308594 C 229.96875 928.570312 235.378906 927.410156 240.660156 925.828125 C 246.320312 924.128906 251.488281 923.398438 256.171875 923.640625 C 271.929688 924.5 284.03125 926.128906 292.46875 928.53125 C 326.929688 938.328125 354.289062 957.929688 374.550781 987.328125 C 375.390625 988.550781 376.800781 989.679688 378.78125 990.71875 C 379.679688 991.199219 380.328125 991.910156 380.730469 992.851562 C 386.429688 1005.539062 392.789062 1017.089844 395.070312 1030.558594 C 397.929688 1047.5 398.179688 1064.460938 395.820312 1081.441406 C 395.101562 1086.660156 390.71875 1094.699219 392.398438 1102.589844 C 392.601562 1103.589844 392.519531 1104.582031 392.160156 1105.558594 C 389.339844 1112.941406 385.761719 1119.871094 381.421875 1126.351562 C 375.800781 1134.730469 371.421875 1141.101562 368.28125 1145.460938 C 362.339844 1153.710938 349.5 1168.679688 338.671875 1171.558594 C 337.609375 1171.839844 336.730469 1172.398438 336.03125 1173.238281 Z M 336.03125 1173.238281 " fill-opacity="1" fill-rule="nonzero"/><path fill="#f4b429" d="M 674.578125 929.308594 C 681.71875 922.949219 702.328125 925.230469 711.78125 925.949219 C 712.761719 926.03125 713.679688 925.839844 714.539062 925.378906 C 716.730469 924.269531 718.320312 924 720.78125 924.898438 C 730.050781 928.289062 738.511719 927.121094 746.96875 931.5 C 768.960938 942.898438 794.761719 958.769531 809.640625 978.121094 C 821.941406 994.078125 829.050781 1014.300781 835.769531 1033.199219 C 838.441406 1040.730469 834.898438 1045.441406 835.441406 1052.878906 C 837.378906 1080.261719 831.820312 1105.011719 818.761719 1127.128906 C 813.058594 1136.789062 804.539062 1151.25 795.75 1160.101562 C 778.371094 1177.601562 757.148438 1188.25 732.089844 1192.050781 C 731.210938 1192.191406 730.359375 1192.070312 729.539062 1191.691406 C 728.078125 1190.96875 726.890625 1190.75 725.96875 1191.03125 C 715.730469 1193.949219 705.230469 1194.898438 694.46875 1193.878906 C 657.128906 1190.339844 626.46875 1175.039062 602.488281 1147.980469 C 593.671875 1138.050781 587.308594 1125.78125 580.648438 1113.417969 C 577.96875 1108.441406 576.140625 1103.371094 575.160156 1098.210938 C 573.160156 1087.628906 571.53125 1075.300781 570.269531 1061.21875 C 569.851562 1056.601562 571.019531 1053.121094 570.960938 1049.609375 C 570.328125 1010.578125 588.449219 987.03125 615.511719 959.789062 C 621.78125 953.488281 660.960938 924.628906 672.121094 929.671875 C 672.535156 929.851562 672.960938 929.910156 673.40625 929.84375 C 673.851562 929.78125 674.242188 929.601562 674.578125 929.308594 Z M 674.578125 929.308594 " fill-opacity="1" fill-rule="nonzero"/><path fill="#f4b429" d="M 1192.921875 934.859375 C 1196.601562 933.980469 1199.480469 934.328125 1201.558594 935.910156 C 1212.660156 944.28125 1225.320312 951.269531 1234.199219 961.230469 C 1252.640625 981.871094 1266.089844 1005.308594 1274.550781 1031.550781 C 1277.449219 1040.53125 1278.769531 1049.03125 1278.511719 1057.050781 C 1278.25 1065.828125 1276.921875 1074.46875 1274.519531 1082.96875 C 1271.011719 1095.449219 1269.480469 1105.441406 1266.988281 1116.929688 C 1264.589844 1127.941406 1257 1138.949219 1248.421875 1145.96875 C 1237.199219 1155.148438 1226.800781 1165.160156 1217.21875 1176 C 1214.820312 1178.679688 1209.929688 1181.199219 1202.550781 1183.558594 C 1195.769531 1185.71875 1189.140625 1190.371094 1179.839844 1188.660156 C 1178.839844 1188.480469 1177.878906 1188.621094 1176.960938 1189.078125 C 1169.199219 1192.980469 1163.261719 1194.800781 1159.140625 1194.539062 C 1143.878906 1193.558594 1128.621094 1192.800781 1113.359375 1192.261719 C 1102.980469 1191.898438 1091.789062 1182.71875 1080.359375 1179.75 C 1072.800781 1177.789062 1067.511719 1175.210938 1064.488281 1172.011719 C 1055.171875 1162.167969 1045.351562 1152.859375 1035.03125 1144.078125 C 1034.269531 1143.417969 1033.828125 1142.601562 1033.710938 1141.621094 C 1032.421875 1130.339844 1023.480469 1126.648438 1020.628906 1119 C 1013.089844 1098.78125 1009.460938 1080.28125 1009.738281 1063.5 C 1009.820312 1058.539062 1009.789062 1054.53125 1009.648438 1051.46875 C 1009.429688 1046.328125 1009.621094 1042.398438 1010.21875 1039.679688 C 1017.640625 1005.800781 1034.070312 977.890625 1059.511719 955.949219 C 1079.761719 938.460938 1103.191406 930.539062 1129.5 929.011719 C 1130.441406 928.949219 1131.261719 928.589844 1131.960938 927.929688 C 1135.320312 924.710938 1138.980469 924.289062 1142.941406 926.671875 C 1143.835938 927.210938 1144.789062 927.351562 1145.789062 927.089844 C 1149.351562 926.128906 1152.679688 926.691406 1155.78125 928.769531 C 1156.761719 929.429688 1157.78125 929.5 1158.839844 928.980469 C 1167.058594 925.019531 1182.449219 930.78125 1190.191406 934.558594 C 1191.070312 934.980469 1191.980469 935.078125 1192.921875 934.859375 Z M 1192.921875 934.859375 " fill-opacity="1" fill-rule="nonzero"/><path fill="#ffffff" d="M 1375.980469 1500 L 1045.828125 1500 C 1064.148438 1416.578125 1059.050781 1334.761719 1030.53125 1254.539062 C 1030.109375 1253.339844 1030.03125 1252.289062 1030.289062 1251.390625 C 1030.375 1251.09375 1030.515625 1250.828125 1030.71875 1250.597656 C 1030.917969 1250.367188 1031.160156 1250.1875 1031.441406 1250.0625 C 1031.722656 1249.9375 1032.019531 1249.878906 1032.324219 1249.886719 C 1032.632812 1249.890625 1032.925781 1249.964844 1033.199219 1250.101562 C 1107.148438 1286.761719 1187.25 1289.460938 1258.679688 1246.261719 C 1280.070312 1233.300781 1298.96875 1214.761719 1316.371094 1195.949219 C 1316.804688 1195.476562 1317.308594 1195.101562 1317.882812 1194.816406 C 1318.457031 1194.535156 1319.066406 1194.367188 1319.703125 1194.308594 C 1320.34375 1194.253906 1320.96875 1194.316406 1321.585938 1194.496094 C 1322.199219 1194.675781 1322.761719 1194.960938 1323.269531 1195.351562 C 1371.488281 1232.488281 1398.667969 1282.03125 1404.808594 1343.96875 C 1407.171875 1367.769531 1408.238281 1393.511719 1408.019531 1421.191406 C 1407.71875 1458.839844 1410 1484.011719 1375.980469 1500 Z M 1375.980469 1500 " fill-opacity="1" fill-rule="nonzero"/><path fill="#ffffff" d="M 359.339844 1500 L 35.28125 1500 C 17.121094 1494.578125 5.359375 1482.070312 0 1462.46875 L 0 1350.148438 C 7.859375 1285.871094 36.640625 1234.640625 86.339844 1196.460938 C 86.589844 1196.269531 86.855469 1196.101562 87.140625 1195.957031 C 87.421875 1195.816406 87.714844 1195.703125 88.019531 1195.613281 C 88.324219 1195.527344 88.632812 1195.46875 88.945312 1195.441406 C 89.261719 1195.414062 89.574219 1195.414062 89.890625 1195.445312 C 90.203125 1195.472656 90.511719 1195.535156 90.816406 1195.621094 C 91.121094 1195.710938 91.414062 1195.824219 91.695312 1195.96875 C 91.976562 1196.113281 92.242188 1196.28125 92.492188 1196.476562 C 92.742188 1196.667969 92.96875 1196.882812 93.179688 1197.121094 C 169.769531 1283.371094 269.730469 1301.28125 373.019531 1249.769531 C 373.417969 1249.566406 373.839844 1249.496094 374.28125 1249.550781 C 374.722656 1249.605469 375.113281 1249.78125 375.449219 1250.074219 C 375.785156 1250.367188 376.011719 1250.730469 376.128906 1251.160156 C 376.242188 1251.589844 376.226562 1252.019531 376.078125 1252.441406 C 348.800781 1332.859375 343.21875 1415.378906 359.339844 1500 Z M 359.339844 1500 " fill-opacity="1" fill-rule="nonzero"/><path fill="#ffffff" d="M 934.769531 1500 L 475.53125 1500 C 437.820312 1489.410156 438.71875 1463.609375 439.140625 1427.128906 C 439.53125 1391.308594 440.011719 1355.25 447.148438 1320 C 457.148438 1270.839844 482.21875 1230.480469 522.359375 1198.917969 C 526.480469 1195.679688 530.238281 1195.890625 533.640625 1199.550781 C 561.578125 1229.75 594.390625 1251.769531 632.070312 1265.609375 C 722.28125 1298.730469 812.488281 1269.148438 873.601562 1196.25 C 873.777344 1196.039062 873.988281 1195.867188 874.230469 1195.730469 C 874.472656 1195.597656 874.730469 1195.511719 875.003906 1195.472656 C 875.277344 1195.433594 875.550781 1195.445312 875.820312 1195.507812 C 876.089844 1195.570312 876.339844 1195.675781 876.570312 1195.828125 C 930.210938 1231.328125 959.628906 1281.429688 964.828125 1346.128906 C 968.808594 1395.648438 969.179688 1436.441406 965.941406 1468.5 C 964.679688 1481.101562 947.488281 1493.101562 934.769531 1500 Z M 934.769531 1500 " fill-opacity="1" fill-rule="nonzero"/></svg>