<svg xmlns="http://www.w3.org/2000/svg" xmlns:xlink="http://www.w3.org/1999/xlink" width="2000" zoomAndPan="magnify" viewBox="0 0 1500 1499.999933" height="2000" preserveAspectRatio="xMidYMid meet" version="1.0"><defs><clipPath id="ac50039449"><path d="M 33.75 6 L 1466.25 6 L 1466.25 1495 L 33.75 1495 Z M 33.75 6 " clip-rule="nonzero"/></clipPath><clipPath id="f4b3eea6f3"><path d="M 436.480469 1056.097656 L 1046.980469 1056.097656 L 1046.980469 1333.597656 L 436.480469 1333.597656 Z M 436.480469 1056.097656 " clip-rule="nonzero"/></clipPath></defs><path fill="#ffffff" d="M 749.4375 1049.402344 C 750.382812 1049.402344 751.285156 1049.335938 752.121094 1049.222656 C 761.324219 1047.9375 768.65625 1040.359375 773.890625 1026.6875 C 786.863281 992.871094 784.671875 921.742188 764.730469 898.03125 C 757.488281 889.390625 749.640625 888.785156 744.449219 889.867188 C 718.257812 895.007812 713.929688 967.851562 720.3125 1005.796875 C 726.492188 1042.679688 740.253906 1049.402344 749.4375 1049.402344 Z M 749.4375 1049.402344 " fill-opacity="1" fill-rule="nonzero"/><path fill="#ffffff" d="M 1001.195312 991.992188 C 1068.015625 991.992188 1122.40625 937.625 1122.40625 870.804688 C 1122.40625 803.984375 1068.039062 749.59375 1001.195312 749.59375 C 934.351562 749.59375 879.984375 803.960938 879.984375 870.804688 C 879.984375 937.644531 934.351562 991.992188 1001.195312 991.992188 Z M 947.527344 869.878906 C 947.527344 840.597656 971.347656 816.773438 1000.609375 816.773438 C 1029.867188 816.773438 1053.691406 840.597656 1053.691406 869.878906 C 1053.691406 899.160156 1029.867188 922.960938 1000.609375 922.960938 C 971.347656 922.960938 947.527344 899.136719 947.527344 869.878906 Z M 947.527344 869.878906 " fill-opacity="1" fill-rule="nonzero"/><path fill="#ffffff" d="M 498.667969 992.011719 C 565.511719 992.011719 619.902344 937.625 619.902344 870.78125 C 619.902344 803.9375 565.511719 749.546875 498.667969 749.546875 C 431.828125 749.546875 377.4375 803.9375 377.4375 870.78125 C 377.4375 937.625 431.828125 992.011719 498.667969 992.011719 Z M 444.210938 869.5625 C 444.210938 840.304688 468.035156 816.480469 497.292969 816.480469 C 526.550781 816.480469 550.375 840.304688 550.375 869.5625 C 550.375 898.820312 526.574219 922.644531 497.292969 922.644531 C 468.011719 922.644531 444.210938 898.820312 444.210938 869.5625 Z M 444.210938 869.5625 " fill-opacity="1" fill-rule="nonzero"/><path fill="#ffffff" d="M 998.917969 1116.496094 C 998.148438 1116.066406 997.292969 1115.816406 996.414062 1115.773438 C 855.757812 1108.441406 700.707031 1108.484375 508.371094 1115.839844 C 500.699219 1116.132812 489.9375 1120.058594 482.292969 1137.066406 C 465.890625 1173.546875 472.996094 1248.375 486.511719 1264.796875 C 496.84375 1277.363281 517.460938 1284.242188 544.734375 1284.242188 L 546.585938 1284.242188 L 1002.050781 1279.054688 C 1003.472656 1279.054688 1004.851562 1278.492188 1005.886719 1277.5 C 1028.605469 1255.75 1034.605469 1212.097656 1030.476562 1178.488281 C 1026.777344 1148.414062 1015.292969 1125.832031 998.9375 1116.496094 Z M 965.527344 1222.632812 L 536.90625 1221.078125 C 536.296875 1221.078125 534.085938 1218.957031 532.507812 1212.371094 C 528.855469 1197.097656 532.261719 1177.652344 537.472656 1172.847656 L 964.355469 1172.734375 C 970.71875 1177.359375 971.191406 1199.421875 965.527344 1222.632812 Z M 965.527344 1222.632812 " fill-opacity="1" fill-rule="nonzero"/><g clip-path="url(#ac50039449)"><path fill="#ffffff" d="M 169.488281 1199.917969 C 175.511719 1230.554688 174.339844 1261.683594 173.074219 1294.597656 C 172.738281 1303.375 172.398438 1312.238281 172.195312 1321.21875 C 171.089844 1369.5625 188.640625 1415.832031 220.289062 1448.203125 C 249.300781 1477.84375 288.691406 1494.179688 331.214844 1494.179688 L 331.371094 1494.179688 L 1167.476562 1493.386719 C 1250.609375 1493.296875 1315.421875 1434.171875 1325.097656 1349.574219 C 1327.601562 1327.714844 1326.765625 1305.96875 1325.976562 1284.921875 C 1324.851562 1255.480469 1323.8125 1227.597656 1331.03125 1199.285156 C 1335.476562 1198.292969 1340.210938 1197.300781 1345.128906 1196.285156 C 1386.121094 1187.804688 1442.246094 1176.164062 1452.445312 1129.21875 C 1470.738281 1045.09375 1470.785156 942.675781 1452.578125 848.222656 C 1443.328125 800.171875 1385.398438 789.433594 1343.101562 781.582031 C 1338.859375 780.792969 1334.777344 780.046875 1330.894531 779.28125 C 1324.058594 745.285156 1325.03125 709.527344 1326 674.921875 C 1326.339844 662.988281 1326.65625 651.035156 1326.675781 639.121094 C 1326.902344 547.601562 1257.714844 479.808594 1162.175781 477.914062 C 1145.371094 477.578125 1128.878906 477.78125 1112.5 477.960938 C 1081.28125 478.320312 1051.75 478.683594 1021.296875 475.570312 C 975.34375 372.699219 881.542969 355.105469 790.066406 339.265625 L 789.273438 333.851562 C 785.328125 307.480469 779.417969 267.890625 791.328125 250.566406 C 856.75 216.050781 885.738281 164.117188 872.945312 104.179688 C 860.585938 46.316406 806.960938 4.898438 745.847656 6.746094 C 683.472656 8.191406 633.167969 52.835938 626.242188 112.863281 C 618.1875 182.664062 649.589844 205.425781 677.292969 225.5 C 707.316406 247.269531 733.304688 266.109375 712.980469 340.867188 C 614.238281 356.886719 529.011719 371.84375 479.832031 474.035156 C 451.996094 480.984375 422.148438 479.71875 390.566406 478.320312 C 366.609375 477.261719 341.792969 476.199219 318.015625 479.132812 C 176.660156 496.527344 175.488281 606.320312 174.542969 694.550781 C 174.203125 726.335938 173.863281 756.40625 167.097656 778.515625 C 161.886719 779.640625 156.246094 780.726562 150.335938 781.832031 C 110.292969 789.476562 55.429688 799.96875 46 846.664062 C 25.628906 947.707031 34.425781 1053.757812 45.390625 1124.910156 C 53.738281 1179.074219 125.699219 1192.179688 169.421875 1199.917969 Z M 174.066406 941.03125 C 174.8125 1003.902344 175.488281 1063.300781 170.59375 1127.773438 C 170.503906 1129.082031 170.074219 1129.535156 169.285156 1129.960938 C 162 1133.84375 138.851562 1126.398438 129.558594 1121.097656 C 92.675781 1099.9375 102.328125 912.605469 109.480469 876.625 C 114.015625 853.839844 150.582031 845.832031 173.660156 847.453125 C 173.34375 879.488281 173.707031 910.777344 174.089844 941.050781 Z M 560.957031 477.464844 C 585.433594 439.769531 646.746094 413.644531 724.394531 408.476562 C 732.855469 407.914062 741.496094 407.621094 750.25 407.621094 C 823.902344 407.621094 905.136719 427.925781 944.277344 475.886719 L 560.957031 477.441406 Z M 805.609375 130.03125 C 805.609375 160.398438 780.90625 185.097656 750.5625 185.097656 C 720.222656 185.097656 695.496094 160.398438 695.496094 130.03125 C 695.496094 99.667969 720.199219 74.988281 750.5625 74.988281 C 780.929688 74.988281 805.609375 99.691406 805.609375 130.03125 Z M 243.234375 1331.480469 L 243.570312 638.601562 C 243.570312 613.8125 252.078125 590.824219 267.507812 573.882812 C 283.164062 556.667969 304.886719 547.195312 328.664062 547.195312 L 328.710938 547.195312 L 1173.027344 547.804688 C 1222.09375 547.847656 1257.714844 585.949219 1257.738281 638.421875 L 1257.984375 1331.277344 C 1257.984375 1379.238281 1227.621094 1414.476562 1178.691406 1423.320312 L 328.597656 1423.117188 C 304.796875 1423.117188 283.003906 1413.550781 267.234375 1396.203125 C 251.738281 1379.171875 243.234375 1356.183594 243.234375 1331.480469 Z M 1388.332031 1095.941406 C 1387.652344 1103.320312 1384.066406 1109.773438 1377.660156 1115.074219 C 1365.546875 1125.113281 1345.0625 1129.351562 1329.363281 1129.21875 L 1327.964844 848.378906 C 1344.722656 847.160156 1364.871094 852.574219 1376.824219 861.734375 C 1383.796875 867.082031 1387.699219 873.261719 1388.445312 880.121094 C 1395.617188 947.300781 1395.59375 1017.886719 1388.355469 1095.941406 Z M 1388.332031 1095.941406 " fill-opacity="1" fill-rule="nonzero"/></g><path fill="#f4b429" d="M 998.917969 1116.496094 C 998.148438 1116.066406 997.292969 1115.816406 996.414062 1115.773438 C 855.757812 1108.441406 700.707031 1108.484375 508.371094 1115.839844 C 500.699219 1116.132812 489.9375 1120.058594 482.292969 1137.066406 C 465.890625 1173.546875 472.996094 1248.375 486.511719 1264.796875 C 496.84375 1277.363281 517.460938 1284.242188 544.734375 1284.242188 L 546.585938 1284.242188 L 1002.050781 1279.054688 C 1003.472656 1279.054688 1004.851562 1278.492188 1005.886719 1277.5 C 1028.605469 1255.75 1034.605469 1212.097656 1030.476562 1178.488281 C 1026.777344 1148.414062 1015.292969 1125.832031 998.9375 1116.496094 Z M 965.527344 1222.632812 L 536.90625 1221.078125 C 536.296875 1221.078125 534.085938 1218.957031 532.507812 1212.371094 C 528.855469 1197.097656 532.261719 1177.652344 537.472656 1172.847656 L 964.355469 1172.734375 C 970.71875 1177.359375 971.191406 1199.421875 965.527344 1222.632812 Z M 965.527344 1222.632812 " fill-opacity="1" fill-rule="nonzero"/><g clip-path="url(#f4b3eea6f3)"><path fill="#f4b429" d="M 169.488281 1199.917969 C 175.511719 1230.554688 174.339844 1261.683594 173.074219 1294.597656 C 172.738281 1303.375 172.398438 1312.238281 172.195312 1321.21875 C 171.089844 1369.5625 188.640625 1415.832031 220.289062 1448.203125 C 249.300781 1477.84375 288.691406 1494.179688 331.214844 1494.179688 L 331.371094 1494.179688 L 1167.476562 1493.386719 C 1250.609375 1493.296875 1315.421875 1434.171875 1325.097656 1349.574219 C 1327.601562 1327.714844 1326.765625 1305.96875 1325.976562 1284.921875 C 1324.851562 1255.480469 1323.8125 1227.597656 1331.03125 1199.285156 C 1335.476562 1198.292969 1340.210938 1197.300781 1345.128906 1196.285156 C 1386.121094 1187.804688 1442.246094 1176.164062 1452.445312 1129.21875 C 1470.738281 1045.09375 1470.785156 942.675781 1452.578125 848.222656 C 1443.328125 800.171875 1385.398438 789.433594 1343.101562 781.582031 C 1338.859375 780.792969 1334.777344 780.046875 1330.894531 779.28125 C 1324.058594 745.285156 1325.03125 709.527344 1326 674.921875 C 1326.339844 662.988281 1326.65625 651.035156 1326.675781 639.121094 C 1326.902344 547.601562 1257.714844 479.808594 1162.175781 477.914062 C 1145.371094 477.578125 1128.878906 477.78125 1112.5 477.960938 C 1081.28125 478.320312 1051.75 478.683594 1021.296875 475.570312 C 975.34375 372.699219 881.542969 355.105469 790.066406 339.265625 L 789.273438 333.851562 C 785.328125 307.480469 779.417969 267.890625 791.328125 250.566406 C 856.75 216.050781 885.738281 164.117188 872.945312 104.179688 C 860.585938 46.316406 806.960938 4.898438 745.847656 6.746094 C 683.472656 8.191406 633.167969 52.835938 626.242188 112.863281 C 618.1875 182.664062 649.589844 205.425781 677.292969 225.5 C 707.316406 247.269531 733.304688 266.109375 712.980469 340.867188 C 614.238281 356.886719 529.011719 371.84375 479.832031 474.035156 C 451.996094 480.984375 422.148438 479.71875 390.566406 478.320312 C 366.609375 477.261719 341.792969 476.199219 318.015625 479.132812 C 176.660156 496.527344 175.488281 606.320312 174.542969 694.550781 C 174.203125 726.335938 173.863281 756.40625 167.097656 778.515625 C 161.886719 779.640625 156.246094 780.726562 150.335938 781.832031 C 110.292969 789.476562 55.429688 799.96875 46 846.664062 C 25.628906 947.707031 34.425781 1053.757812 45.390625 1124.910156 C 53.738281 1179.074219 125.699219 1192.179688 169.421875 1199.917969 Z M 174.066406 941.03125 C 174.8125 1003.902344 175.488281 1063.300781 170.59375 1127.773438 C 170.503906 1129.082031 170.074219 1129.535156 169.285156 1129.960938 C 162 1133.84375 138.851562 1126.398438 129.558594 1121.097656 C 92.675781 1099.9375 102.328125 912.605469 109.480469 876.625 C 114.015625 853.839844 150.582031 845.832031 173.660156 847.453125 C 173.34375 879.488281 173.707031 910.777344 174.089844 941.050781 Z M 560.957031 477.464844 C 585.433594 439.769531 646.746094 413.644531 724.394531 408.476562 C 732.855469 407.914062 741.496094 407.621094 750.25 407.621094 C 823.902344 407.621094 905.136719 427.925781 944.277344 475.886719 L 560.957031 477.441406 Z M 805.609375 130.03125 C 805.609375 160.398438 780.90625 185.097656 750.5625 185.097656 C 720.222656 185.097656 695.496094 160.398438 695.496094 130.03125 C 695.496094 99.667969 720.199219 74.988281 750.5625 74.988281 C 780.929688 74.988281 805.609375 99.691406 805.609375 130.03125 Z M 243.234375 1331.480469 L 243.570312 638.601562 C 243.570312 613.8125 252.078125 590.824219 267.507812 573.882812 C 283.164062 556.667969 304.886719 547.195312 328.664062 547.195312 L 328.710938 547.195312 L 1173.027344 547.804688 C 1222.09375 547.847656 1257.714844 585.949219 1257.738281 638.421875 L 1257.984375 1331.277344 C 1257.984375 1379.238281 1227.621094 1414.476562 1178.691406 1423.320312 L 328.597656 1423.117188 C 304.796875 1423.117188 283.003906 1413.550781 267.234375 1396.203125 C 251.738281 1379.171875 243.234375 1356.183594 243.234375 1331.480469 Z M 1388.332031 1095.941406 C 1387.652344 1103.320312 1384.066406 1109.773438 1377.660156 1115.074219 C 1365.546875 1125.113281 1345.0625 1129.351562 1329.363281 1129.21875 L 1327.964844 848.378906 C 1344.722656 847.160156 1364.871094 852.574219 1376.824219 861.734375 C 1383.796875 867.082031 1387.699219 873.261719 1388.445312 880.121094 C 1395.617188 947.300781 1395.59375 1017.886719 1388.355469 1095.941406 Z M 1388.332031 1095.941406 " fill-opacity="1" fill-rule="nonzero"/></g></svg>