<svg xmlns="http://www.w3.org/2000/svg" xmlns:xlink="http://www.w3.org/1999/xlink" width="2000" zoomAndPan="magnify" viewBox="0 0 1500 1499.999933" height="2000" preserveAspectRatio="xMidYMid meet" version="1.0"><defs><clipPath id="7e7911f435"><path d="M 0 26.25 L 1500 26.25 L 1500 1473.75 L 0 1473.75 Z M 0 26.25 " clip-rule="nonzero"/></clipPath><clipPath id="3f31894259"><path d="M 394.378906 89.441406 L 1130.878906 89.441406 L 1130.878906 943.691406 L 394.378906 943.691406 Z M 394.378906 89.441406 " clip-rule="nonzero"/></clipPath></defs><g clip-path="url(#7e7911f435)"><path fill="#ffffff" d="M 325.191406 1183.726562 C 220.578125 1200.492188 137.527344 1223.089844 87.238281 1249.75 C 71.976562 1257.84375 59.988281 1266.125 51.964844 1274.910156 C 46.722656 1280.640625 43.238281 1286.222656 43.238281 1292.292969 C 43.238281 1300.335938 48.910156 1307.4375 57.300781 1314.914062 C 69.765625 1326.019531 88.203125 1336.40625 111.605469 1346.335938 C 231.253906 1397.097656 472.382812 1431.246094 750 1431.246094 C 1027.617188 1431.246094 1268.746094 1397.097656 1388.394531 1346.335938 C 1411.796875 1336.40625 1430.234375 1326.019531 1442.699219 1314.914062 C 1451.085938 1307.4375 1456.761719 1300.335938 1456.761719 1292.292969 C 1456.761719 1284.25 1451.085938 1277.144531 1442.699219 1269.667969 C 1430.234375 1258.5625 1411.796875 1248.175781 1388.394531 1238.25 C 1268.746094 1187.488281 1027.617188 1153.335938 750 1153.335938 C 698.886719 1153.335938 649.003906 1154.507812 600.878906 1156.730469 C 589.171875 1157.269531 579.226562 1148.203125 578.6875 1136.5 C 578.148438 1124.792969 587.210938 1114.851562 598.917969 1114.308594 C 647.675781 1112.058594 698.214844 1110.871094 750 1110.871094 C 1034.894531 1110.871094 1282.195312 1147.0625 1404.980469 1199.15625 C 1439.765625 1213.914062 1465.175781 1230.339844 1480.175781 1247.136719 C 1493.136719 1261.648438 1499.230469 1276.949219 1499.230469 1292.292969 C 1499.230469 1307.636719 1493.136719 1322.9375 1480.175781 1337.449219 C 1465.175781 1354.246094 1439.765625 1370.671875 1404.980469 1385.429688 C 1282.195312 1437.523438 1034.894531 1473.714844 750 1473.714844 C 465.105469 1473.714844 217.804688 1437.523438 95.019531 1385.429688 C 60.234375 1370.671875 34.824219 1354.246094 19.824219 1337.449219 C 6.863281 1322.9375 0.769531 1307.636719 0.769531 1292.292969 C 0.769531 1270.460938 13.648438 1248.113281 41.214844 1228.257812 C 88.738281 1194.027344 185.089844 1163.667969 312.664062 1142.738281 L 274.503906 1118.570312 C 264.601562 1112.300781 261.65625 1099.171875 267.925781 1089.269531 C 274.195312 1079.371094 287.328125 1076.421875 297.226562 1082.695312 L 384.445312 1137.933594 C 389.472656 1141.117188 392.929688 1146.261719 393.980469 1152.117188 C 395.035156 1157.972656 393.582031 1164.003906 389.976562 1168.734375 L 330.679688 1246.625 C 323.582031 1255.953125 310.246094 1257.757812 300.921875 1250.660156 C 291.597656 1243.5625 289.792969 1230.230469 296.890625 1220.90625 Z M 313.753906 293.09375 C 313.753906 304.8125 304.238281 314.328125 292.519531 314.328125 C 280.800781 314.328125 271.289062 304.8125 271.289062 293.09375 L 271.289062 47.519531 C 271.289062 35.792969 280.792969 26.285156 292.519531 26.285156 L 544.269531 26.285156 C 555.988281 26.285156 565.5 35.800781 565.5 47.519531 C 565.5 59.238281 555.988281 68.753906 544.269531 68.753906 C 544.269531 68.753906 313.753906 68.753906 313.753906 68.753906 Z M 544.269531 963.972656 C 555.988281 963.972656 565.5 973.484375 565.5 985.207031 C 565.5 996.925781 555.988281 1006.441406 544.269531 1006.441406 L 292.519531 1006.441406 C 280.792969 1006.441406 271.289062 996.933594 271.289062 985.207031 L 271.289062 751.960938 C 271.289062 740.238281 280.800781 730.726562 292.519531 730.726562 C 304.238281 730.726562 313.753906 740.238281 313.753906 751.960938 C 313.753906 751.960938 313.753906 963.972656 313.753906 963.972656 Z M 1208.972656 745.796875 C 1208.972656 734.078125 1218.488281 724.5625 1230.207031 724.5625 C 1241.925781 724.5625 1251.441406 734.078125 1251.441406 745.796875 L 1251.441406 985.207031 C 1251.441406 996.933594 1241.933594 1006.441406 1230.207031 1006.441406 L 978.457031 1006.441406 C 966.738281 1006.441406 957.222656 996.925781 957.222656 985.207031 C 957.222656 973.484375 966.738281 963.972656 978.457031 963.972656 L 1208.972656 963.972656 Z M 978.457031 68.753906 C 966.738281 68.753906 957.222656 59.238281 957.222656 47.519531 C 957.222656 35.800781 966.738281 26.285156 978.457031 26.285156 L 1230.207031 26.285156 C 1241.933594 26.285156 1251.441406 35.792969 1251.441406 47.519531 L 1251.441406 286.929688 C 1251.441406 298.648438 1241.925781 308.164062 1230.207031 308.164062 C 1218.488281 308.164062 1208.972656 298.648438 1208.972656 286.929688 C 1208.972656 286.929688 1208.972656 68.753906 1208.972656 68.753906 Z M 394.65625 316.882812 C 394.65625 309.300781 398.703125 302.292969 405.273438 298.496094 L 750.746094 99.042969 C 757.316406 95.25 765.410156 95.25 771.980469 99.042969 L 1117.453125 298.496094 C 1124.023438 302.292969 1128.070312 309.300781 1128.070312 316.882812 L 1128.070312 715.839844 C 1128.070312 723.425781 1124.023438 730.433594 1117.453125 734.230469 L 771.980469 933.683594 C 765.410156 937.472656 757.316406 937.472656 750.746094 933.683594 L 405.273438 734.230469 C 398.703125 730.433594 394.65625 723.425781 394.65625 715.839844 Z M 437.121094 353.664062 L 437.121094 703.582031 L 740.128906 878.515625 L 740.128906 528.597656 Z M 782.597656 878.515625 L 1085.601562 703.582031 L 1085.601562 353.664062 L 782.597656 528.597656 Z M 1064.371094 316.882812 L 761.363281 141.949219 L 458.355469 316.882812 L 761.363281 491.820312 Z M 1064.371094 316.882812 " fill-opacity="1" fill-rule="evenodd"/></g><g clip-path="url(#3f31894259)"><path fill="#f4b429" d="M 325.191406 1183.726562 C 220.578125 1200.492188 137.527344 1223.089844 87.238281 1249.75 C 71.976562 1257.84375 59.988281 1266.125 51.964844 1274.910156 C 46.722656 1280.640625 43.238281 1286.222656 43.238281 1292.292969 C 43.238281 1300.335938 48.910156 1307.4375 57.300781 1314.914062 C 69.765625 1326.019531 88.203125 1336.40625 111.605469 1346.335938 C 231.253906 1397.097656 472.382812 1431.246094 750 1431.246094 C 1027.617188 1431.246094 1268.746094 1397.097656 1388.394531 1346.335938 C 1411.796875 1336.40625 1430.234375 1326.019531 1442.699219 1314.914062 C 1451.085938 1307.4375 1456.761719 1300.335938 1456.761719 1292.292969 C 1456.761719 1284.25 1451.085938 1277.144531 1442.699219 1269.667969 C 1430.234375 1258.5625 1411.796875 1248.175781 1388.394531 1238.25 C 1268.746094 1187.488281 1027.617188 1153.335938 750 1153.335938 C 698.886719 1153.335938 649.003906 1154.507812 600.878906 1156.730469 C 589.171875 1157.269531 579.226562 1148.203125 578.6875 1136.5 C 578.148438 1124.792969 587.210938 1114.851562 598.917969 1114.308594 C 647.675781 1112.058594 698.214844 1110.871094 750 1110.871094 C 1034.894531 1110.871094 1282.195312 1147.0625 1404.980469 1199.15625 C 1439.765625 1213.914062 1465.175781 1230.339844 1480.175781 1247.136719 C 1493.136719 1261.648438 1499.230469 1276.949219 1499.230469 1292.292969 C 1499.230469 1307.636719 1493.136719 1322.9375 1480.175781 1337.449219 C 1465.175781 1354.246094 1439.765625 1370.671875 1404.980469 1385.429688 C 1282.195312 1437.523438 1034.894531 1473.714844 750 1473.714844 C 465.105469 1473.714844 217.804688 1437.523438 95.019531 1385.429688 C 60.234375 1370.671875 34.824219 1354.246094 19.824219 1337.449219 C 6.863281 1322.9375 0.769531 1307.636719 0.769531 1292.292969 C 0.769531 1270.460938 13.648438 1248.113281 41.214844 1228.257812 C 88.738281 1194.027344 185.089844 1163.667969 312.664062 1142.738281 L 274.503906 1118.570312 C 264.601562 1112.300781 261.65625 1099.171875 267.925781 1089.269531 C 274.195312 1079.371094 287.328125 1076.421875 297.226562 1082.695312 L 384.445312 1137.933594 C 389.472656 1141.117188 392.929688 1146.261719 393.980469 1152.117188 C 395.035156 1157.972656 393.582031 1164.003906 389.976562 1168.734375 L 330.679688 1246.625 C 323.582031 1255.953125 310.246094 1257.757812 300.921875 1250.660156 C 291.597656 1243.5625 289.792969 1230.230469 296.890625 1220.90625 Z M 313.753906 293.09375 C 313.753906 304.8125 304.238281 314.328125 292.519531 314.328125 C 280.800781 314.328125 271.289062 304.8125 271.289062 293.09375 L 271.289062 47.519531 C 271.289062 35.792969 280.792969 26.285156 292.519531 26.285156 L 544.269531 26.285156 C 555.988281 26.285156 565.5 35.800781 565.5 47.519531 C 565.5 59.238281 555.988281 68.753906 544.269531 68.753906 C 544.269531 68.753906 313.753906 68.753906 313.753906 68.753906 Z M 544.269531 963.972656 C 555.988281 963.972656 565.5 973.484375 565.5 985.207031 C 565.5 996.925781 555.988281 1006.441406 544.269531 1006.441406 L 292.519531 1006.441406 C 280.792969 1006.441406 271.289062 996.933594 271.289062 985.207031 L 271.289062 751.960938 C 271.289062 740.238281 280.800781 730.726562 292.519531 730.726562 C 304.238281 730.726562 313.753906 740.238281 313.753906 751.960938 C 313.753906 751.960938 313.753906 963.972656 313.753906 963.972656 Z M 1208.972656 745.796875 C 1208.972656 734.078125 1218.488281 724.5625 1230.207031 724.5625 C 1241.925781 724.5625 1251.441406 734.078125 1251.441406 745.796875 L 1251.441406 985.207031 C 1251.441406 996.933594 1241.933594 1006.441406 1230.207031 1006.441406 L 978.457031 1006.441406 C 966.738281 1006.441406 957.222656 996.925781 957.222656 985.207031 C 957.222656 973.484375 966.738281 963.972656 978.457031 963.972656 L 1208.972656 963.972656 Z M 978.457031 68.753906 C 966.738281 68.753906 957.222656 59.238281 957.222656 47.519531 C 957.222656 35.800781 966.738281 26.285156 978.457031 26.285156 L 1230.207031 26.285156 C 1241.933594 26.285156 1251.441406 35.792969 1251.441406 47.519531 L 1251.441406 286.929688 C 1251.441406 298.648438 1241.925781 308.164062 1230.207031 308.164062 C 1218.488281 308.164062 1208.972656 298.648438 1208.972656 286.929688 C 1208.972656 286.929688 1208.972656 68.753906 1208.972656 68.753906 Z M 394.65625 316.882812 C 394.65625 309.300781 398.703125 302.292969 405.273438 298.496094 L 750.746094 99.042969 C 757.316406 95.25 765.410156 95.25 771.980469 99.042969 L 1117.453125 298.496094 C 1124.023438 302.292969 1128.070312 309.300781 1128.070312 316.882812 L 1128.070312 715.839844 C 1128.070312 723.425781 1124.023438 730.433594 1117.453125 734.230469 L 771.980469 933.683594 C 765.410156 937.472656 757.316406 937.472656 750.746094 933.683594 L 405.273438 734.230469 C 398.703125 730.433594 394.65625 723.425781 394.65625 715.839844 Z M 437.121094 353.664062 L 437.121094 703.582031 L 740.128906 878.515625 L 740.128906 528.597656 Z M 782.597656 878.515625 L 1085.601562 703.582031 L 1085.601562 353.664062 L 782.597656 528.597656 Z M 1064.371094 316.882812 L 761.363281 141.949219 L 458.355469 316.882812 L 761.363281 491.820312 Z M 1064.371094 316.882812 " fill-opacity="1" fill-rule="evenodd"/></g></svg>