<svg xmlns="http://www.w3.org/2000/svg" xmlns:xlink="http://www.w3.org/1999/xlink" width="2000" zoomAndPan="magnify" viewBox="0 0 1500 1499.999933" height="2000" preserveAspectRatio="xMidYMid meet" version="1.0"><path stroke-linecap="butt" transform="matrix(0.454048, 0, 0, 0.454048, -137.036952, -132.7381)" fill-opacity="1" fill="#ffffff" fill-rule="nonzero" stroke-linejoin="miter" d="M 3440.79823 1845.998698 L 1494.099044 1845.998698 C 1435.803974 1845.998698 1388.598387 1893.204284 1388.598387 1951.499355 L 1388.598387 2210.403111 L 3546.298887 2210.403111 L 3546.298887 1951.396117 C 3546.298887 1893.204284 3499.101904 1845.998698 3440.79823 1845.998698 Z M 2881.101889 1934.903842 L 2937.796771 2094.699096 C 2942.502704 2106.502644 2940.197055 2120.697872 2933.099441 2130.90123 C 2926.001826 2141.095985 2913.398184 2147.402107 2900.803146 2147.402107 L 2668.603624 2147.402107 C 2655.999982 2147.402107 2643.39634 2141.095985 2636.298726 2130.90123 C 2629.201112 2120.697872 2626.904066 2106.502644 2631.601396 2094.699096 L 2688.296277 1934.903842 C 2693.802305 1919.20306 2708.797628 1908.096369 2726.0986 1908.096369 L 2845.002994 1908.096369 C 2859.903682 1908.896464 2874.795767 1919.20306 2881.101889 1934.903842 Z M 2500.902059 1934.903842 L 2557.59694 2094.699096 C 2561.502778 2106.502644 2559.997224 2120.697872 2552.89961 2130.90123 C 2545.801996 2141.095985 2533.198354 2147.402107 2520.603315 2147.402107 L 2288.403794 2147.402107 C 2275.800152 2147.402107 2263.19651 2141.095985 2256.098895 2130.90123 C 2249.001281 2120.697872 2246.704235 2106.502644 2251.401565 2094.699096 L 2308.096447 1934.903842 C 2313.602474 1919.20306 2328.597797 1908.096369 2345.898769 1908.096369 L 2464.803163 1908.096369 C 2479.703851 1908.896464 2494.595936 1919.20306 2500.902059 1934.903842 Z M 2120.702228 1934.903842 L 2177.397109 2094.699096 C 2182.103042 2106.502644 2179.797393 2120.697872 2172.699779 2130.90123 C 2165.602165 2141.095985 2152.998523 2147.402107 2140.403484 2147.402107 L 1908.203963 2147.402107 C 1895.600321 2147.402107 1882.996679 2141.095985 1875.899064 2130.90123 C 1868.80145 2120.697872 1866.495801 2106.502644 1871.201734 2094.699096 L 1927.896616 1934.903842 C 1933.402644 1919.20306 1948.397966 1908.096369 1965.698939 1908.096369 L 2084.603332 1908.096369 C 2099.400782 1908.896464 2114.396105 1919.20306 2120.702228 1934.903842 Z M 1740.502397 1934.903842 L 1797.197278 2094.699096 C 1801.103116 2106.502644 1799.597562 2120.697872 1792.499948 2130.90123 C 1785.402334 2141.095985 1772.798692 2147.402107 1760.203653 2147.402107 L 1527.204037 2147.402107 C 1514.600395 2147.402107 1501.996753 2141.095985 1494.899139 2130.90123 C 1487.801525 2120.697872 1485.495876 2106.502644 1490.201809 2094.699096 L 1546.89669 1934.903842 C 1552.402718 1919.20306 1567.398041 1908.096369 1584.699013 1908.096369 L 1703.603406 1908.096369 C 1719.200951 1908.896464 1734.196274 1919.20306 1740.502397 1934.903842 Z M 1740.502397 1934.903842 " stroke="#004379" stroke-width="8" stroke-opacity="1" stroke-miterlimit="4"/><path stroke-linecap="butt" transform="matrix(0.454048, 0, 0, 0.454048, -137.036952, -132.7381)" fill-opacity="1" fill="#ffffff" fill-rule="nonzero" stroke-linejoin="miter" d="M 3546.298887 2289.896389 L 1388.598387 2289.896389 L 1388.598387 3493.496886 C 1388.598387 3551.80056 1435.803974 3598.997543 1494.099044 3598.997543 L 3441.598325 3598.997543 C 3499.901999 3598.997543 3547.098982 3551.80056 3547.098982 3493.496886 Z M 2844.099661 2589.897482 L 3232.197201 2865.396751 C 3242.400559 2872.502968 3248.698078 2885.098007 3248.698078 2897.701649 C 3248.698078 2910.296688 3242.400559 2922.90033 3232.197201 2929.997944 L 2844.099661 3205.497213 C 2837.002047 3210.203146 2829.104338 3212.60343 2821.301264 3212.60343 C 2808.697622 3212.60343 2796.902678 3207.097402 2788.996366 3196.102553 C 2776.401327 3178.001486 2780.298563 3153.6029 2798.399629 3140.999258 L 3140.797137 2897.796284 L 2798.399629 2654.601913 C 2780.298563 2641.998271 2776.401327 2616.799591 2788.996366 2599.498618 C 2800.799914 2581.199679 2825.998594 2577.302443 2844.099661 2589.897482 Z M 2399.401875 2607.998549 L 2609.603094 3158.997087 C 2617.500803 3179.498437 2607.20281 3202.296834 2586.796094 3210.203146 C 2582.098764 3211.803336 2577.401434 3212.60343 2572.600866 3212.60343 C 2556.900083 3212.60343 2541.896157 3203.200167 2535.598638 3186.596052 L 2325.397419 2634.797419 C 2317.49971 2614.296068 2327.797703 2591.497672 2348.195815 2583.599963 C 2368.697166 2577.302443 2391.504166 2587.497198 2399.401875 2607.998549 Z M 2136.40301 3140.89602 C 2154.504077 3153.499662 2158.401313 3178.698343 2145.79767 3195.999315 C 2137.899962 3207.002768 2126.096414 3212.500192 2113.501375 3212.500192 C 2105.603667 3212.500192 2097.800593 3210.099908 2090.702979 3205.402578 L 1702.596836 2929.903309 C 1692.402081 2922.797092 1686.095958 2910.202053 1686.095958 2897.598411 C 1686.095958 2885.003372 1692.402081 2872.39973 1702.596836 2865.302116 L 2090.702979 2589.802847 C 2108.804045 2577.199205 2133.202632 2581.096441 2145.79767 2599.197508 C 2158.401313 2617.298574 2154.504077 2641.697161 2136.40301 2654.300803 L 1793.996899 2897.701649 Z M 2136.40301 3140.89602 " stroke="#004379" stroke-width="8" stroke-opacity="1" stroke-miterlimit="4"/><path stroke-linecap="butt" transform="matrix(0.454048, 0, 0, 0.454048, -137.036952, -132.7381)" fill-opacity="1" fill="#f4b429" fill-rule="nonzero" stroke-linejoin="miter" d="M 2752.802836 1988.398345 L 2723.698316 2068.700321 L 2843.299567 2068.700321 L 2815.003745 1988.398345 Z M 2752.802836 1988.398345 " stroke="#f4b429" stroke-width="8" stroke-opacity="1" stroke-miterlimit="4"/><path stroke-linecap="butt" transform="matrix(0.454048, 0, 0, 0.454048, -137.036952, -132.7381)" fill-opacity="1" fill="#f4b429" fill-rule="nonzero" stroke-linejoin="miter" d="M 2372.603005 1988.398345 L 2344.29858 2068.700321 L 2463.099736 2068.700321 L 2434.803914 1988.398345 Z M 2372.603005 1988.398345 " stroke="#f4b429" stroke-width="8" stroke-opacity="1" stroke-miterlimit="4"/><path stroke-linecap="butt" transform="matrix(0.454048, 0, 0, 0.454048, -137.036952, -132.7381)" fill-opacity="1" fill="#f4b429" fill-rule="nonzero" stroke-linejoin="miter" d="M 1992.403174 1988.398345 L 1963.298655 2068.700321 L 2082.899905 2068.700321 L 2054.604083 1988.398345 Z M 1992.403174 1988.398345 " stroke="#f4b429" stroke-width="8" stroke-opacity="1" stroke-miterlimit="4"/><path stroke-linecap="butt" transform="matrix(0.454048, 0, 0, 0.454048, -137.036952, -132.7381)" fill-opacity="1" fill="#f4b429" fill-rule="nonzero" stroke-linejoin="miter" d="M 1674.404252 1988.398345 L 1612.203343 1988.398345 L 1583.804283 2068.700321 L 1702.700074 2068.700321 Z M 1674.404252 1988.398345 " stroke="#f4b429" stroke-width="8" stroke-opacity="1" stroke-miterlimit="4"/><path stroke-linecap="butt" transform="matrix(0.454048, 0, 0, 0.454048, -137.036952, -132.7381)" fill-opacity="1" fill="#ffffff" fill-rule="nonzero" stroke-linejoin="miter" d="M 1416.902812 1046.996618 L 1627.104031 1598.803854 C 1635.00174 1619.296602 1624.703747 1642.103602 1604.297031 1650.00131 C 1599.599701 1651.6015 1594.902371 1652.401594 1590.101803 1652.401594 C 1574.40102 1652.401594 1559.397094 1642.998331 1553.099575 1626.402819 L 1342.898356 1074.604187 C 1335.000647 1054.102836 1345.29864 1031.295836 1365.696753 1023.398127 C 1386.198103 1016.300513 1409.099738 1026.503871 1416.902812 1046.996618 Z M 1154.798677 1093.40211 L 812.401169 1336.596481 L 1154.798677 1579.799454 C 1172.899744 1592.403096 1176.796979 1617.601777 1164.20194 1634.902749 C 1156.304231 1645.897599 1144.500684 1651.403627 1131.897042 1651.403627 C 1123.999333 1651.403627 1116.196259 1649.003343 1109.098645 1644.29741 L 721.001106 1368.798141 C 710.797748 1361.700527 704.500228 1349.096885 704.500228 1336.501846 C 704.500228 1323.898204 710.797748 1311.303165 721.001106 1304.196948 L 1109.098645 1028.697679 C 1127.199712 1016.10264 1151.598298 1019.999875 1164.20194 1038.100942 C 1176.900217 1056.399882 1172.899744 1080.798468 1154.798677 1093.40211 Z M 406.202562 729.703156 L 406.202562 1933.303653 C 406.202562 1991.598724 453.399546 2038.795707 511.703219 2038.795707 L 1309.096506 2038.795707 L 1309.096506 1951.396117 C 1309.096506 1849.895933 1391.798766 1766.402182 1494.099044 1766.402182 L 2564.703157 1766.402182 L 2564.703157 729.703156 Z M 1838.896836 1652.298356 C 1826.301797 1652.298356 1814.49825 1646.800932 1806.600541 1635.797479 C 1793.996899 1617.696412 1797.902738 1593.297826 1816.003805 1580.702787 L 2158.401313 1337.499813 L 1816.003805 1094.29684 C 1797.902738 1081.701801 1793.996899 1056.50312 1806.600541 1039.202148 C 1819.204183 1021.101081 1844.402864 1017.203845 1861.703836 1029.798884 L 2249.801376 1305.298153 C 2259.996131 1312.395767 2266.302253 1324.999409 2266.302253 1337.603051 C 2266.302253 1350.19809 2259.996131 1362.801732 2249.801376 1369.899346 L 1861.703836 1645.398615 C 1854.597619 1650.00131 1846.803148 1652.298356 1838.896836 1652.298356 Z M 1838.896836 1652.298356 " stroke="#004379" stroke-width="8" stroke-opacity="1" stroke-miterlimit="4"/><path stroke-linecap="butt" transform="matrix(0.454048, 0, 0, 0.454048, -137.036952, -132.7381)" fill-opacity="1" fill="#f4b429" fill-rule="nonzero" stroke-linejoin="miter" d="M 1770.398408 427.396414 L 1742.102586 507.69839 L 1861.703836 507.69839 L 1833.399411 427.396414 Z M 1770.398408 427.396414 " stroke="#f4b429" stroke-width="8" stroke-opacity="1" stroke-miterlimit="4"/><path stroke-linecap="butt" transform="matrix(0.454048, 0, 0, 0.454048, -137.036952, -132.7381)" fill-opacity="1" fill="#f4b429" fill-rule="nonzero" stroke-linejoin="miter" d="M 1390.198577 427.396414 L 1361.799517 507.69839 L 1481.504005 507.69839 L 1453.199581 427.396414 Z M 1390.198577 427.396414 " stroke="#f4b429" stroke-width="8" stroke-opacity="1" stroke-miterlimit="4"/><path stroke-linecap="butt" transform="matrix(0.454048, 0, 0, 0.454048, -137.036952, -132.7381)" fill-opacity="1" fill="#f4b429" fill-rule="nonzero" stroke-linejoin="miter" d="M 1009.998746 427.396414 L 981.599686 507.69839 L 1101.304174 507.69839 L 1072.896512 427.396414 Z M 1009.998746 427.396414 " stroke="#f4b429" stroke-width="8" stroke-opacity="1" stroke-miterlimit="4"/><path stroke-linecap="butt" transform="matrix(0.454048, 0, 0, 0.454048, -137.036952, -132.7381)" fill-opacity="1" fill="#f4b429" fill-rule="nonzero" stroke-linejoin="miter" d="M 629.798915 427.396414 L 601.399855 507.69839 L 721.09574 507.69839 L 692.696681 427.396414 Z M 629.798915 427.396414 " stroke="#f4b429" stroke-width="8" stroke-opacity="1" stroke-miterlimit="4"/><path stroke-linecap="butt" transform="matrix(0.454048, 0, 0, 0.454048, -137.036952, -132.7381)" fill-opacity="1" fill="#ffffff" fill-rule="nonzero" stroke-linejoin="miter" d="M 1898.697461 374.702006 L 1955.400946 534.49726 C 1960.098276 546.300808 1957.80123 560.496036 1950.703616 570.699394 C 1943.597398 580.902752 1931.00236 587.200271 1918.398717 587.200271 L 1686.199196 587.200271 C 1673.604158 587.200271 1661.000515 580.902752 1653.902901 570.699394 C 1646.796684 560.496036 1644.499638 546.300808 1649.196968 534.49726 L 1705.900453 374.702006 C 1711.397877 359.001224 1726.401803 347.903136 1743.702775 347.903136 L 1862.598566 347.903136 C 1878.196111 347.903136 1893.200037 359.001224 1898.697461 374.702006 Z M 1518.49763 374.702006 L 1575.201115 534.49726 C 1579.09835 546.300808 1577.601399 560.496036 1570.503785 570.699394 C 1563.397567 580.902752 1550.802529 587.200271 1538.198887 587.200271 L 1305.999365 587.200271 C 1293.395723 587.200271 1280.800685 580.902752 1273.70307 570.699394 C 1266.596853 560.496036 1264.299807 546.300808 1268.997137 534.49726 L 1325.700622 374.702006 C 1331.198046 359.001224 1346.201972 347.903136 1363.502945 347.903136 L 1482.398735 347.903136 C 1497.99628 347.903136 1513.000206 359.001224 1518.49763 374.702006 Z M 1138.2978 374.702006 L 1195.001284 534.49726 C 1199.698614 546.300808 1197.401568 560.496036 1190.303954 570.699394 C 1183.197737 580.902752 1170.602698 587.200271 1157.999056 587.200271 L 925.696297 587.200271 C 913.101258 587.200271 900.497616 580.902752 893.400002 570.699394 C 886.302387 560.496036 883.996738 546.300808 888.702671 534.49726 L 945.397553 374.702006 C 950.903581 359.001224 965.898903 347.903136 983.199876 347.903136 L 1102.104269 347.903136 C 1117.796449 347.903136 1132.800375 359.001224 1138.2978 374.702006 Z M 758.097969 374.702006 L 814.801453 534.49726 C 818.698688 546.300808 817.201737 560.496036 810.104123 570.699394 C 802.997906 580.902752 790.402867 587.200271 777.799225 587.200271 L 545.496466 587.200271 C 532.901427 587.200271 520.297785 580.902752 513.200171 570.699394 C 506.102556 560.496036 503.796907 546.300808 508.502841 534.49726 L 565.197722 374.702006 C 570.70375 359.001224 585.699073 347.903136 603.000045 347.903136 L 721.895835 347.903136 C 737.596618 347.903136 752.600544 359.001224 758.097969 374.702006 Z M 406.202562 390.402789 L 406.202562 649.401181 L 2563.903062 649.401181 L 2563.903062 390.402789 C 2563.903062 332.099115 2516.697476 284.902132 2458.402406 284.902132 L 511.703219 284.902132 C 453.399546 285.796862 406.202562 333.002448 406.202562 390.402789 Z M 406.202562 390.402789 " stroke="#004379" stroke-width="8" stroke-opacity="1" stroke-miterlimit="4"/></svg>