<svg xmlns="http://www.w3.org/2000/svg" xmlns:xlink="http://www.w3.org/1999/xlink" width="2000" zoomAndPan="magnify" viewBox="0 0 1500 1499.999933" height="2000" preserveAspectRatio="xMidYMid meet" version="1.0"><path stroke-linecap="butt" transform="matrix(3.278082, 0, 0, 3.278082, -58.228834, -150.000007)" fill-opacity="1" fill="#ffffff" fill-rule="nonzero" stroke-linejoin="miter" d="M 468.0133 245.534699 C 468.010917 245.463201 468.007342 245.390512 468.002575 245.320206 C 467.990659 245.141462 467.971593 244.966293 467.945377 244.793507 C 467.937036 244.737501 467.929886 244.683877 467.920353 244.629063 C 467.832173 244.154795 467.685603 243.703169 467.488984 243.276566 C 467.468727 243.233668 467.448469 243.191961 467.428211 243.149062 C 467.329306 242.946486 467.219677 242.751059 467.099322 242.562782 C 467.092173 242.552057 467.088598 242.541333 467.081448 242.529416 L 467.059999 242.498434 C 467.048082 242.479368 467.036166 242.460302 467.023058 242.442428 L 366.429501 88.629627 C 365.370145 86.999481 363.55053 86.019964 361.610562 86.019964 L 298.440044 86.019964 C 286.930121 86.019964 277.560359 95.380192 277.560359 106.899648 L 277.560359 110.619907 C 277.560359 122.12983 286.919396 131.499592 298.440044 131.499592 L 343.029526 131.499592 L 411.981817 239.919754 L 148.838452 239.919754 C 148.771721 239.918562 148.707373 239.910221 148.63945 239.910221 L 80.54513 239.910221 L 149.490272 131.499592 L 194.079754 131.499592 C 205.589677 131.499592 214.959438 122.140555 214.959438 110.619907 L 214.959438 106.899648 C 214.959438 95.389725 205.600402 86.019964 194.079754 86.019964 L 130.910427 86.019964 C 128.970459 86.019964 127.149653 86.999481 126.090297 88.629627 L 25.550362 242.362589 C 25.363277 242.62713 25.201216 242.909545 25.060604 243.203877 C 25.058221 243.211027 25.053454 243.218177 25.051071 243.225326 C 24.844919 243.662653 24.6912 244.128579 24.600636 244.618338 C 24.587528 244.686261 24.580378 244.754183 24.569654 244.822106 C 24.548204 244.968676 24.531522 245.11763 24.520797 245.268966 C 24.512456 245.372638 24.506497 245.476309 24.505306 245.579981 C 24.505306 245.609771 24.500539 245.639562 24.500539 245.670544 L 24.500539 369.859504 C 24.500539 390.590235 41.3704 407.460095 62.099939 407.460095 L 213.310227 407.460095 C 215.109583 407.460095 216.810035 406.610465 217.900373 405.180513 L 246.259899 367.819439 L 274.619424 405.180513 C 275.709763 406.619998 277.410214 407.460095 279.209571 407.460095 L 430.419859 407.460095 C 451.149398 407.460095 468.02045 390.599768 468.02045 369.870228 L 468.02045 245.680077 C 468.02045 245.631221 468.014492 245.583556 468.0133 245.534699 Z M 36.019995 304.989725 L 36.019995 251.440401 L 66.979651 251.440401 L 66.979651 304.989725 Z M 78.500298 251.440401 L 142.880318 251.440401 L 142.880318 304.989725 L 78.500298 304.989725 Z M 154.399774 251.440401 L 456.490269 251.440401 L 456.490269 272.449973 L 154.399774 272.449973 Z M 351.059899 122.639847 C 350.000542 120.97991 348.170204 119.969411 346.200445 119.969411 L 298.449577 119.969411 C 293.289833 119.969411 289.09054 115.770118 289.09054 110.610374 L 289.09054 106.890115 C 289.09054 101.730372 293.289833 97.529887 298.449577 97.529887 L 358.500416 97.529887 L 451.610557 239.919754 L 425.640244 239.919754 Z M 134.020573 97.53942 L 194.070221 97.53942 C 199.229965 97.53942 203.430449 101.739905 203.430449 106.899648 L 203.430449 110.619907 C 203.430449 115.779651 199.229965 119.980136 194.070221 119.980136 L 146.320544 119.980136 C 144.349594 119.980136 142.520447 120.989443 141.459899 122.650571 L 66.885512 239.910221 L 40.91639 239.910221 Z M 430.410326 395.950172 L 282.059942 395.950172 L 250.850045 354.829515 C 249.759707 353.39003 248.060447 352.549933 246.259899 352.549933 C 244.460542 352.549933 242.760091 353.399563 241.669752 354.829515 L 210.450323 395.950172 L 62.099939 395.950172 C 47.720579 395.950172 36.019995 384.249589 36.019995 369.870228 L 36.019995 316.510373 L 148.63945 316.510373 C 151.819902 316.510373 154.399774 313.930501 154.399774 310.750049 L 154.399774 283.969429 L 456.490269 283.969429 L 456.490269 369.870228 C 456.490269 384.249589 444.789686 395.950172 430.410326 395.950172 Z M 430.410326 395.950172 " stroke="#004379" stroke-width="8" stroke-opacity="1" stroke-miterlimit="4"/><path fill="#f4b429" d="M 304.621094 690.007812 C 264.925781 690.007812 232.636719 722.296875 232.636719 761.996094 C 232.636719 801.691406 264.925781 833.980469 304.621094 833.980469 C 344.285156 833.980469 376.609375 801.691406 376.609375 761.996094 C 376.609375 722.296875 344.320312 690.007812 304.621094 690.007812 Z M 304.621094 796.21875 C 285.742188 796.21875 270.398438 780.875 270.398438 761.996094 C 270.398438 743.113281 285.742188 727.773438 304.621094 727.773438 C 323.472656 727.773438 338.84375 743.113281 338.84375 761.996094 C 338.84375 780.875 323.503906 796.21875 304.621094 796.21875 Z M 304.621094 796.21875 " fill-opacity="1" fill-rule="nonzero"/></svg>