<svg xmlns="http://www.w3.org/2000/svg" xmlns:xlink="http://www.w3.org/1999/xlink" width="2000" zoomAndPan="magnify" viewBox="0 0 1500 1499.999933" height="2000" preserveAspectRatio="xMidYMid meet" version="1.0"><path fill="#ffffff" d="M 921.390625 0 L 967.5 0 C 990.660156 1.839844 1013.640625 4.628906 1036.441406 8.371094 C 1117.101562 21.628906 1190.878906 51.589844 1257.78125 98.25 C 1365.199219 173.191406 1438.128906 273.460938 1476.570312 399.058594 C 1488.710938 438.78125 1496.519531 485.390625 1500 538.890625 L 1500 578.910156 C 1495.078125 669.53125 1470.78125 753.910156 1427.101562 832.050781 C 1420.859375 843.210938 1414.910156 851.128906 1409.25 855.808594 C 1360.710938 895.890625 1292.609375 845.070312 1319.640625 786.960938 C 1332.058594 760.320312 1347.238281 732.417969 1356.300781 706.738281 C 1389.21875 613.480469 1391.148438 519.789062 1362.089844 425.671875 C 1305.089844 241.078125 1129.441406 113.699219 936.058594 117.210938 C 852.460938 118.75 776.011719 141.761719 706.710938 186.238281 C 611.011719 247.679688 538.828125 346.410156 514.769531 458.851562 C 490.589844 571.929688 506.871094 678.121094 563.609375 777.421875 C 621.960938 879.539062 723.511719 956.339844 838.199219 983.339844 C 933.539062 1005.820312 1026.519531 998.140625 1117.140625 960.300781 C 1134.101562 953.21875 1145.070312 949.320312 1150.050781 948.601562 C 1180.5 944.191406 1210.140625 966.269531 1214.789062 996.269531 C 1219.089844 1024.089844 1208.851562 1044.75 1184.070312 1058.25 C 1170.308594 1065.730469 1156.070312 1072.179688 1141.351562 1077.601562 C 978.839844 1137.417969 802.289062 1121.101562 654.148438 1032.210938 C 653.898438 1032.0625 653.628906 1031.960938 653.339844 1031.910156 C 653.050781 1031.863281 652.765625 1031.863281 652.476562 1031.917969 C 652.1875 1031.976562 651.921875 1032.078125 651.671875 1032.230469 C 651.421875 1032.386719 651.207031 1032.578125 651.03125 1032.808594 C 577.089844 1128.628906 502.210938 1223.058594 426.390625 1316.101562 C 391.828125 1358.550781 353.128906 1395.839844 314.671875 1434 C 295.410156 1453.078125 280.28125 1466.070312 269.28125 1472.96875 C 245.859375 1487.628906 219.699219 1496.640625 190.800781 1500 L 160.53125 1500 C 73.171875 1488.988281 11.671875 1428.390625 0 1339.5 L 0 1308.058594 C 4.039062 1278.339844 13.898438 1251.460938 29.578125 1227.417969 C 36.480469 1216.820312 49.679688 1201.859375 69.179688 1182.539062 C 91 1160.917969 112.660156 1139.160156 134.160156 1117.261719 C 140.238281 1111.039062 146.679688 1105.128906 153.480469 1099.53125 C 160.238281 1093.949219 166.960938 1088.359375 173.640625 1082.761719 C 269.660156 1002.320312 367.140625 923.988281 466.078125 847.769531 C 466.355469 847.554688 466.585938 847.296875 466.769531 846.996094 C 466.949219 846.699219 467.074219 846.378906 467.136719 846.035156 C 467.203125 845.691406 467.203125 845.347656 467.136719 845.007812 C 467.074219 844.664062 466.953125 844.34375 466.769531 844.050781 C 325.53125 610.890625 374.910156 310.140625 582.359375 133.050781 C 662.480469 64.671875 754.859375 22.621094 859.5 6.898438 C 880.019531 3.820312 900.648438 1.519531 921.390625 0 Z M 155.96875 1379.128906 C 197.851562 1394.28125 219.480469 1363.078125 245.578125 1337.667969 C 287.140625 1297.191406 328.121094 1251.640625 368.519531 1201.019531 C 449.851562 1099.109375 512.578125 1021.378906 558.628906 960.390625 C 558.75 960.234375 558.835938 960.058594 558.890625 959.867188 C 558.945312 959.675781 558.964844 959.480469 558.949219 959.285156 C 558.933594 959.085938 558.882812 958.894531 558.796875 958.710938 C 558.710938 958.53125 558.59375 958.371094 558.449219 958.230469 L 540.539062 940.46875 C 540.371094 940.296875 540.175781 940.164062 539.957031 940.0625 C 539.738281 939.960938 539.507812 939.902344 539.269531 939.886719 C 539.027344 939.871094 538.792969 939.898438 538.5625 939.964844 C 538.332031 940.035156 538.121094 940.144531 537.929688 940.289062 C 446.011719 1010.789062 355.859375 1083.898438 266.25 1157.308594 C 240.589844 1178.328125 222.628906 1194.109375 212.371094 1204.648438 C 190.730469 1226.828125 168.890625 1248.800781 146.851562 1270.558594 C 124.5 1292.609375 109.859375 1311.511719 120.179688 1343.789062 C 125.578125 1360.667969 137.511719 1372.449219 155.96875 1379.128906 Z M 155.96875 1379.128906 " fill-opacity="1" fill-rule="nonzero"/><path fill="#f4b429" d="M 1124.941406 464.761719 C 1094.539062 405.441406 1047.269531 369.101562 983.128906 355.738281 C 952.648438 349.410156 918.03125 357.300781 897.058594 329.488281 C 880.828125 307.949219 881.460938 274.921875 898.378906 254.101562 C 915.179688 233.429688 942.601562 233.160156 969.78125 235.589844 C 1083.71875 245.789062 1181.398438 312.75 1232.550781 414.539062 C 1247.488281 444.238281 1248.988281 478.589844 1218.960938 499.109375 C 1193.980469 516.167969 1168.761719 514.25 1143.300781 493.351562 C 1139.019531 489.851562 1132.898438 480.320312 1124.941406 464.761719 Z M 1124.941406 464.761719 " fill-opacity="1" fill-rule="nonzero"/></svg>