<svg xmlns="http://www.w3.org/2000/svg" xmlns:xlink="http://www.w3.org/1999/xlink" width="2000" zoomAndPan="magnify" viewBox="0 0 1500 1499.999933" height="2000" preserveAspectRatio="xMidYMid meet" version="1.0"><path fill="#ffffff" d="M 1500 411.121094 L 1500 424.410156 C 1495.398438 442.410156 1485.691406 454.039062 1470.871094 459.300781 C 1235.089844 542.921875 999.25 626.339844 763.351562 709.558594 C 753.890625 712.898438 747.039062 713.820312 742.800781 712.320312 C 506.160156 628.421875 269.539062 544.46875 32.941406 460.46875 C 14.941406 454.089844 3.960938 441.96875 0 424.109375 L 0 408.871094 C 4.859375 391.910156 16.101562 380.320312 33.71875 374.101562 C 268.839844 291.238281 503.949219 208.339844 739.050781 125.398438 C 754.441406 119.96875 788.730469 135.328125 804.808594 141 C 1025.308594 218.71875 1245.808594 296.449219 1466.308594 374.191406 C 1484.671875 380.648438 1495.898438 392.960938 1500 411.121094 Z M 1500 411.121094 " fill-opacity="1" fill-rule="nonzero"/><path fill="#f4b429" d="M 1395.78125 963.480469 C 1453.621094 1000.828125 1452.03125 1077.359375 1395.628906 1114.980469 C 1394.789062 1115.539062 1394.371094 1116.328125 1394.371094 1117.351562 C 1394.167969 1219.550781 1394.128906 1287.839844 1394.25 1322.21875 C 1394.308594 1337.488281 1392.871094 1351.949219 1381.5 1362.839844 C 1361.460938 1382.039062 1322.429688 1378.050781 1311.03125 1351.140625 C 1308.570312 1345.339844 1307.269531 1334.949219 1307.128906 1319.96875 C 1306.511719 1252.269531 1306.300781 1184.578125 1306.5 1116.898438 C 1306.507812 1116.425781 1306.398438 1115.980469 1306.167969 1115.5625 C 1305.9375 1115.144531 1305.617188 1114.808594 1305.210938 1114.558594 C 1277.371094 1097.550781 1262.671875 1071.570312 1262.820312 1038.660156 C 1262.980469 1007.121094 1277.050781 982.03125 1305.03125 963.390625 C 1305.46875 963.097656 1305.816406 962.722656 1306.066406 962.257812 C 1306.316406 961.796875 1306.441406 961.304688 1306.441406 960.78125 L 1306.441406 611.96875 C 1306.441406 611.328125 1306.738281 610.898438 1307.339844 610.679688 L 1392.121094 579.839844 C 1392.242188 579.792969 1392.367188 579.761719 1392.496094 579.746094 C 1392.625 579.730469 1392.75 579.730469 1392.878906 579.746094 C 1393.007812 579.761719 1393.132812 579.792969 1393.253906 579.839844 C 1393.375 579.882812 1393.492188 579.945312 1393.597656 580.019531 C 1393.703125 580.09375 1393.800781 580.179688 1393.886719 580.273438 C 1393.96875 580.371094 1394.042969 580.480469 1394.101562 580.59375 C 1394.160156 580.710938 1394.207031 580.832031 1394.238281 580.957031 C 1394.265625 581.082031 1394.28125 581.210938 1394.28125 581.339844 L 1394.28125 960.71875 C 1394.28125 961.917969 1394.78125 962.839844 1395.78125 963.480469 Z M 1395.78125 963.480469 " fill-opacity="1" fill-rule="nonzero"/><path fill="#ffffff" d="M 520.589844 981.539062 C 459.808594 967.980469 329.429688 931.949219 311.699219 862.351562 C 309.980469 855.570312 309.089844 843.121094 309.03125 825 C 308.910156 767.699219 308.941406 710.398438 309.121094 653.101562 C 309.121094 652.9375 309.160156 652.78125 309.234375 652.636719 C 309.308594 652.488281 309.414062 652.367188 309.550781 652.273438 C 309.683594 652.179688 309.832031 652.121094 309.992188 652.09375 C 310.15625 652.070312 310.316406 652.085938 310.46875 652.140625 C 433.871094 695.941406 557.339844 739.929688 680.878906 784.109375 C 710.460938 794.699219 736.109375 802.050781 767.910156 798.210938 C 778.371094 796.929688 795.578125 792.03125 819.539062 783.511719 C 942.359375 739.769531 1065.570312 696.070312 1189.171875 652.410156 C 1190.328125 651.988281 1190.910156 652.398438 1190.910156 653.640625 C 1191.03125 715.421875 1191.140625 777.539062 1191.238281 840 C 1191.328125 875.789062 1167.960938 903.238281 1139.191406 920.878906 C 1063.921875 966.960938 976.019531 985.710938 889.828125 997.378906 C 766.070312 1014.121094 642.988281 1008.839844 520.589844 981.539062 Z M 520.589844 981.539062 " fill-opacity="1" fill-rule="nonzero"/></svg>